<?xml version="1.0" encoding="utf-8"?>
<!-- Generator: Adobe Illustrator 26.0.2, SVG Export Plug-In . SVG Version: 6.00 Build 0)  -->
<svg version="1.1" id="Layer_1" xmlns="http://www.w3.org/2000/svg" xmlns:xlink="http://www.w3.org/1999/xlink" x="0px" y="0px"
	 viewBox="0 0 49.9 49.9" style="enable-background:new 0 0 49.9 49.9;" xml:space="preserve">
<style type="text/css">
	.st0{fill:#FF0000;}
</style>
<g id="Layer_2_00000090294803732704911940000010389955706018985372_" transform="translate(2.115 2.113)">
	<g id="Layer_1_00000160189218103245721640000006162691601475925920_">
		<path id="Rectangle_183" class="st0" d="M9.3,1.5l34.8,34.8c2,2,2,5.2,0,7.2l-0.6,0.6c-2,2-5.2,2-7.2,0L1.5,9.3c-2-2-2-5.2,0-7.2
			l0.6-0.6C4.1-0.5,7.3-0.5,9.3,1.5z"/>
		<path id="Rectangle_184" class="st0" d="M1.5,36.3L36.3,1.5c2-2,5.2-2,7.2,0l0.6,0.6c2,2,2,5.2,0,7.2L9.3,44.2c-2,2-5.2,2-7.2,0
			l-0.6-0.6C-0.5,41.6-0.5,38.3,1.5,36.3z"/>
	</g>
</g>
</svg>
