<svg xmlns="http://www.w3.org/2000/svg" viewBox="0 0 101.89 104.24"><g id="Layer_2" data-name="Layer 2"><g id="Layer_1-2" data-name="Layer 1"><path d="M17.59,72.53a11.8,11.8,0,0,1-4.42-.91C4.43,68.56,0,63.34,0,56.07c0-5.79,6.47-11.58,12-11.58,8.51,0,11.69,5.23,11.69,21.12C23.72,70.26,21.68,72.53,17.59,72.53Zm40.75-53V54.26c0,7.49-11,18.73-18.84,18.73-5.11,0-7.72-3.75-7.72-11.36V21.11c0-1-7.6-13-7.6-15.89,0-2.38,1.47-4.09,4.2-5.22H46.31c11.35,0,17,2.27,17,6.7C63.34,8.85,58.34,18.62,58.34,19.52Z"/><path d="M56.15,103.78a11.85,11.85,0,0,1-4.43-.91C43,99.81,38.55,94.59,38.55,87.32c0-5.79,6.47-11.58,12-11.58,8.51,0,11.69,5.23,11.69,21.12C62.28,101.51,60.23,103.78,56.15,103.78Zm40.75-53V85.51c0,7.49-11,18.73-18.85,18.73-5.1,0-7.71-3.75-7.71-11.36V52.36c0-1-7.61-13-7.61-15.89,0-2.38,1.48-4.09,4.2-5.22H84.87c11.35,0,17,2.27,17,6.7C101.89,40.1,96.9,49.86,96.9,50.77Z"/></g></g></svg>