<?xml version="1.0" encoding="utf-8"?>
<!-- Generator: Adobe Illustrator 26.0.2, SVG Export Plug-In . SVG Version: 6.00 Build 0)  -->
<svg version="1.1" id="Layer_1" xmlns="http://www.w3.org/2000/svg" xmlns:xlink="http://www.w3.org/1999/xlink" x="0px" y="0px"
	 viewBox="0 0 58.9 45.4" style="enable-background:new 0 0 58.9 45.4;" xml:space="preserve">
<style type="text/css">
	.st0{fill:#FF0000;}
</style>
<g id="Layer_2_00000004536611102613530710000004033260043070742403_">
	<g id="Layer_1-2">
		<path class="st0" d="M5.1,0h48.7c2.8,0,5.1,2.3,5.1,5.1l0,0c0,2.8-2.3,5.1-5.1,5.1H5.1C2.3,10.2,0,7.9,0,5.1l0,0
			C0,2.3,2.3,0,5.1,0z"/>
		<path class="st0" d="M5.1,17.6h48.7c2.8,0,5.1,2.3,5.1,5.1v0c0,2.8-2.3,5.1-5.1,5.1H5.1c-2.8,0-5.1-2.3-5.1-5.1v0
			C0,19.9,2.3,17.6,5.1,17.6z"/>
		<path class="st0" d="M5.1,35.2h48.7c2.8,0,5.1,2.3,5.1,5.1v0c0,2.8-2.3,5.1-5.1,5.1H5.1c-2.8,0-5.1-2.3-5.1-5.1v0
			C0,37.5,2.3,35.2,5.1,35.2z"/>
	</g>
</g>
</svg>
