<svg xmlns="http://www.w3.org/2000/svg" viewBox="0 0 1296 288"><defs><style>.cls-1{fill:#fff;}</style></defs><g id="Layer_2" data-name="Layer 2"><g id="Layer_1-2" data-name="Layer 1"><path class="cls-1" d="M99.38,186.47H18.23C7.12,186.47.85,177.82.85,172.35s16.81-31.71,16.81-32.57V53.6C17.66,51.59,0,21,0,13.83,0,8.07,3.13,3.46,9.11,0H70.34L84,10.09V134l9.68,24.49c4,10.66,4.84,19,6,24.79A10.77,10.77,0,0,1,99.38,186.47Zm94.26,9.22c-21.36,0-35.88-7.78-44.71-22.48-4.27-7.49-3.41-15-11.67-42.37-3.42-7.2-27.34-24.78-27.34-39.48a53,53,0,0,1,.29-6.92C139.25,68,143,64.56,143,51.59c0-11.53-33.32-29.4-33.32-41.22a20.52,20.52,0,0,1,.29-3.74L145,4c11.67-.86,20.22-1.15,26.2-1.15,11.1,0,47.27,25.36,47.27,50.72,0,7.79-3.7,15-11.11,21.91L193.36,88.77c4.27,15.27,9.39,56.2,42.14,72.91C234.65,182.72,217.85,195.69,193.64,195.69Z"/><path class="cls-1" d="M343.15,188.48H275.09c-8.83,0-13.67-7.2-13.67-10.95,0-5.47,12.82-25.94,12.82-27.09v-96c0-1.44-14.53-36.31-15.1-39.2l2.56-5.76c4.56-6,22.79-8.36,45-8.36h46.42A25.24,25.24,0,0,1,354,7.78c0,7.21-4.27,19.31-12.81,36v97.71c0,2.59,17.37,29.68,17.37,34C358.53,180.13,352.54,188.48,343.15,188.48Z"/><path class="cls-1" d="M463,43.8v97.71c0,4.9,11.4,23.06,11.4,28,0,6.06-4,12.11-12.53,18.16H397.83c-5.7,0-5.13,0-13.68-10.09l-.28-1.44a55.55,55.55,0,0,1,4.56-17.87l6.83-17.87c.85-3.45,1.14-8.35,1.14-14.12,0-3.45-.57-11-.57-14.41V45c0-3.46-12.24-24.21-12.24-43.81h78c10,0,15.66,8.07,15.66,13C477.27,20.17,463,44.67,463,43.8ZM595.74,187.62H514.86c-7.12,0-10.53-7.21-10.53-21.61,0-3.46.57-13,.57-15.86,0-5.47-.57-9.22-1.43-11.81-9.11-18.16-18.22-37.76-18.22-51,0-10.38,19.08-43.81,19.08-49.87,0-5.18-2.85-17-2.85-21.9,0-8.65,8.54-14.7,18.79-14.7h70.34c2.85,4,4.56,7.5,4.56,10.67,0,18.15-53.25,38.62-53.25,62.25,0,8.36,4.84,19.6,15.37,32.28l28.77,34c10,13,15.09,24.2,15.09,32.56A24.18,24.18,0,0,1,595.74,187.62Z"/><path class="cls-1" d="M701.68,2.31c-.86,5.76-1.14,16.71-1.14,33.14V174.94c-2.85,3.46-7.69,8.07-14.81,13.83H631.05c-5.4-2.88-8.25-7.2-8.25-12.39,0-6.92,16.23-37.47,16.23-40.92V76.37c0-15.27-.28-25.36-1.14-30.55-.57-3.17-12-18.44-12-31.12,0-5.48,3.7-9.51,11.1-11.82,1.43-.29,2.57-.29,2.85-.57ZM743,117.88c-9.69,0-19.94-14.13-19.94-23.64s14-32,23.93-32c6.54,0,9.68,6,9.68,17.87C756.64,110.09,753.5,117.88,743,117.88Zm87.14,56.77c0,3.46-3.7,8.36-10.54,14.12H736.42c-6.55,0-10.54-8.36-10.54-15.56,0-11,9.4-13,24.49-13,23.07,0,26.48-30.55,39.3-45h40.44ZM833.52,68.3c-6.83,6.92-21.35,11.82-31.89,11.82-18.79,0-14.81-23.34-26.48-36.89C767.46,34.3,731,21.61,728.73,20.46,732.15,8.07,737.27,2,744.11,2l78.59.3,10.82,10.37Z"/><path class="cls-1" d="M953.7,186.47H872.54c-11.11,0-17.37-8.65-17.37-14.12S872,140.64,872,139.78V53.6c0-2-17.66-32.56-17.66-39.77,0-5.76,3.14-10.37,9.12-13.83h61.22l13.67,10.09V134L948,158.51c4,10.66,4.85,19,6,24.79A11.14,11.14,0,0,1,953.7,186.47Zm94.26,9.22c-21.36,0-35.89-7.78-44.71-22.48-4.27-7.49-3.42-15-11.68-42.37-3.41-7.2-27.34-24.78-27.34-39.48a53,53,0,0,1,.29-6.92c29-16.43,32.75-19.88,32.75-32.85,0-11.53-33.32-29.4-33.32-41.22a21.23,21.23,0,0,1,.28-3.74l35-2.6c11.67-.86,20.22-1.15,26.2-1.15,11.1,0,47.27,25.36,47.27,50.72,0,7.79-3.7,15-11.11,21.91l-13.95,13.26c4.27,15.27,9.4,56.2,42.15,72.91C1089,182.72,1072.16,195.69,1048,195.69Z"/><path class="cls-1" d="M1236.2,188.48c-6,0-9.11-6-11.11-17.86-10.82-52.17-28.47-43.24-75.17-54.76-21.36-5.19-49.27-25.94-49.27-50.73,0-29.11,32.75-62.54,61.51-62.54,8,0,12.81,6.92,14.81,20.75,3.7,25.66,5.69,29.4,15.94,34.3,9.4,4.32,62.37,14.7,68.35,17,22.21,9.23,34.74,31.42,34.74,56.2C1296,164.27,1258.69,188.48,1236.2,188.48Zm-62.93-2.3a607.27,607.27,0,0,0-61.23,3.17c-4.55-4.9-7.12-13-7.12-25.08,0-14.69,6-25.93,15.66-25.93,13.67,0,62.37,34.29,66.35,47.84ZM1266.1,48.7c-13.1,0-25.35-11-55.82-30.25V6.91c17.38.87,26.77,1.16,28.77,1.16a145.41,145.41,0,0,0,19.64-1.73c.29,0,7.69-1.73,9.4-1.73,11.11,0,18.23,11.24,18.23,25.07C1286.32,42.94,1276.35,48.7,1266.1,48.7Z"/><path class="cls-1" d="M208.24,286a9.13,9.13,0,0,1-3.43-.71c-6.79-2.41-10.22-6.51-10.22-12.22,0-4.55,5-9.09,9.34-9.09,6.6,0,9.07,4.1,9.07,16.58C213,284.25,211.41,286,208.24,286Zm31.63-41.64v27.28c0,5.89-8.54,14.72-14.62,14.72-4,0-6-2.95-6-8.92V245.65c0-.81-5.9-10.26-5.9-12.49,0-1.87,1.15-3.21,3.26-4.1h13.92c8.81,0,13.22,1.79,13.22,5.26C243.75,236,239.87,243.69,239.87,244.4Z"/><path class="cls-1" d="M275.11,228.17a88.86,88.86,0,0,0-.35,10.26v43.15a33.29,33.29,0,0,1-4.58,4.28H253.26a4.28,4.28,0,0,1-2.55-3.83c0-2.14,5-11.59,5-12.67V251.09a74.57,74.57,0,0,0-.35-9.45c-.18-1-3.7-5.71-3.7-9.63,0-1.7,1.14-2.95,3.43-3.66a3.54,3.54,0,0,0,.88-.18Zm12.77,35.76c-3,0-6.16-4.37-6.16-7.32s4.31-9.89,7.4-9.89c2,0,3,1.87,3,5.53C292.11,261.52,291.14,263.93,287.88,263.93Zm27,17.56c0,1.07-1.14,2.59-3.26,4.37H285.86c-2,0-3.26-2.59-3.26-4.81,0-3.39,2.91-4,7.58-4,7.13,0,8.19-9.45,12.15-13.91h12.51Zm1.06-32.9c-2.11,2.14-6.61,3.66-9.87,3.66-5.81,0-4.58-7.23-8.19-11.42-2.38-2.76-13.65-6.69-14.36-7,1.06-3.84,2.64-5.71,4.76-5.71l24.31.09,3.35,3.21Z"/><path class="cls-1" d="M353.08,285.15H328c-3.44,0-5.37-2.68-5.37-4.37s5.19-9.81,5.19-10.08V244c0-.62-5.46-10.07-5.46-12.3a4.86,4.86,0,0,1,2.82-4.28h18.94l4.23,3.12v38.34l3,7.58a40.43,40.43,0,0,1,1.85,7.67A3.34,3.34,0,0,1,353.08,285.15ZM382.24,288c-6.61,0-11.1-2.41-13.83-6.95-1.32-2.32-1.06-4.64-3.61-13.11-1.06-2.23-8.46-7.67-8.46-12.22a16.4,16.4,0,0,1,.09-2.14c9-5.08,10.13-6.15,10.13-10.16,0-3.57-10.31-9.1-10.31-12.75a6.3,6.3,0,0,1,.09-1.16l10.84-.8c3.61-.27,6.25-.36,8.1-.36,3.44,0,14.62,7.85,14.62,15.69,0,2.41-1.14,4.64-3.43,6.78l-4.32,4.1c1.32,4.73,2.91,17.39,13,22.56C394.93,284,389.73,288,382.24,288Z"/><path class="cls-1" d="M424,286.22c-9.42,0-25.28-15.34-25.28-23.72V248.41a10.16,10.16,0,0,1,.53-2.32c2.82-9.45,14.89-18.1,23.17-18.1,2.82,0,5.63.27,5.63,3.75,0,4.19-5.63,18.1-5.63,21.66V261c1.23,8.3,6.08,19.44,6.08,20.33C428.5,283,427.61,286.22,424,286.22Zm16.65.53c-2.81,0-4-.89-4-4.28,0-4.72,4.4-16.14,4.4-30.76l-.44-1.87c-1.85-7.05-3.26-12.75-3.17-17.39l.09-2.14a30.1,30.1,0,0,1,4.76-.44c12.86,0,21.49,12.66,21.49,28.53C463.82,274.71,454.93,286.75,440.65,286.75Z"/><path class="cls-1" d="M515,285.24c-5.29,0-7.05-1.79-13.13-17.75-1.85-4.72-5.37-13.28-7-13.28-1.41,0-2.73,2-2.73,3.56V271c0,.54,4.75,7.67,4.75,9.81,0,1.87-1.06,3.74-3.17,5.44H478.63c-3.44-1.43-5-3.12-5-5.09,0-1.69,4.76-8.2,4.76-9.45V244c0-1.51-5.11-10.16-5.11-11.86,0-1.51.8-2.76,2.47-3.83h24.75c7.32,0,7.49,10.52,16.48,35.58,2.55,7,3.7,12.39,3.7,15.51C520.65,283.27,518.8,285.24,515,285.24Zm41.94,1H533.86l-1-.27c-1.85-.71-2.81-1.87-2.81-3.57,0-.8,3.52-12.21,3.52-18.1,0-.26-.53-3.3-1.41-9.09-1.85.53-6.17,3.74-7.14,4.19-2.2-2.5-3.87-10-3.87-15.87,0-9.19,3.08-15.16,9-15.16H553l1,.27c2.56.89,3.88,2.32,3.88,4.28s-4.67,10.52-4.67,10.79V271c0,.54,5.11,8.92,5.11,11.41A6.15,6.15,0,0,1,557,286.22Z"/><path class="cls-1" d="M590.07,228.17a88.86,88.86,0,0,0-.35,10.26v43.15a33.29,33.29,0,0,1-4.58,4.28H568.22a4.28,4.28,0,0,1-2.55-3.83c0-2.14,5-11.59,5-12.67V251.09a74.57,74.57,0,0,0-.35-9.45c-.18-1-3.7-5.71-3.7-9.63,0-1.7,1.14-2.95,3.43-3.66a3.66,3.66,0,0,0,.89-.18Zm12.78,35.76c-3,0-6.17-4.37-6.17-7.32s4.32-9.89,7.4-9.89c2,0,3,1.87,3,5.53C607.08,261.52,606.11,263.93,602.85,263.93Zm27,17.56c0,1.07-1.15,2.59-3.26,4.37H600.82c-2,0-3.26-2.59-3.26-4.81,0-3.39,2.91-4,7.58-4,7.13,0,8.19-9.45,12.16-13.91h12.51Zm1.05-32.9c-2.11,2.14-6.6,3.66-9.86,3.66-5.82,0-4.58-7.23-8.2-11.42-2.38-2.76-13.65-6.69-14.36-7,1.06-3.84,2.65-5.71,4.76-5.71l24.32.09,3.34,3.21Z"/><path class="cls-1" d="M687.16,286a9.21,9.21,0,0,1-3.44-.71c-6.78-2.41-10.22-6.51-10.22-12.22,0-4.55,5-9.09,9.34-9.09,6.61,0,9.08,4.1,9.08,16.58C691.92,284.25,690.33,286,687.16,286Zm31.63-41.64v27.28c0,5.89-8.55,14.72-14.63,14.72-4,0-6-2.95-6-8.92V245.65c0-.81-5.9-10.26-5.9-12.49,0-1.87,1.14-3.21,3.26-4.1h13.92c8.81,0,13.21,1.79,13.21,5.26C722.66,236,718.79,243.69,718.79,244.4Z"/><path class="cls-1" d="M760.72,255.81c-.08.72-7.13,9.28-7.13,13.47,0,5.61,5.28,8.11,5.28,11.85a15.78,15.78,0,0,1-.35,3.3l-3.43,1.7H729.8c-.44-3.21-.79-5.26-.79-5.89a4.66,4.66,0,0,1,1.58-3.56l2.65-2.32c1-1.61,1.58-7,1.58-15.87,0-2.94,0-6.24-.17-9.63l-.18-4.82c-.09-1.42-4.67-9.18-4.67-10.88,0-2,3-4.72,5-4.72h19.83c1.93,0,3.7,1.07,5.11,3.39,0,3.21-.36,5.35-1.15,6.42a5.11,5.11,0,0,0-3.35,4.63c0,10.88,5.64,3.75,5.64,10.08A28.47,28.47,0,0,1,760.72,255.81Zm33.83-11.05c0,4.45-1,20.59-1,25.05,0,2.32,4.93,11.5,4.93,13.2a5.66,5.66,0,0,1-2.29,4.19H771l-3.17-2.41v-.45c0-3.21,6.08-14.26,6.08-17.38,0-3.57-1.06-5.35-4.85-8.56-2.2-1.87-2.37-2.68-2.37-3.57v-.89c0-2.5,7.48-5.89,7.48-9.54,0-2.85-1.14-4.28-3.34-4.28a2,2,0,0,0-1,.18H769a1.83,1.83,0,0,1-2-2.05c0-1.07,1.32-4,4-8.74H794.2c3.44,0,5.2,1.16,5.2,3.65C799.4,235.22,794.55,245.2,794.55,244.76Z"/><path class="cls-1" d="M836.14,242.17c0,.09-3.44,9.72-3.44,10.16v14.45L829.8,269a4.13,4.13,0,0,0-1.68,3.12c0,1.87,3.35,7.67,3.35,10.34,0,2.94-2,4.46-6.26,4.46H807.59c-1.93,0-3.17-2.76-3.17-4.82,0-1.06,1.24-2.4,3.53-4.63,4.31-4.55,6.52-10,9.86-19.71l2.47-6.86c1-2.86,2.64-7.31,4.67-13.29,2.47-7,5.64-9.45,10.66-9.45.88,0,1.85,0,2.91.09A84.91,84.91,0,0,1,836.14,242.17ZM863.89,284l-23,1A6.73,6.73,0,0,1,839,280.6l.09-.27c3.08-5.44,4.67-9.09,4.67-11.14,0-.72-3-6.16-3-9.81v-6l7.14-21.22c2.55,1.7,4.84,4.82,6.87,9.28s3.08,10.79,7.84,22.82l7.22,10.88a6.93,6.93,0,0,1,.88,3C870.67,281.67,867.24,283.9,863.89,284Z"/><path class="cls-1" d="M923.89,285.24c-5.29,0-7-1.79-13.13-17.75-1.85-4.72-5.37-13.28-7-13.28-1.41,0-2.73,2-2.73,3.56V271c0,.54,4.76,7.67,4.76,9.81,0,1.87-1.06,3.74-3.17,5.44H887.5c-3.43-1.43-5-3.12-5-5.09,0-1.69,4.76-8.2,4.76-9.45V244c0-1.51-5.11-10.16-5.11-11.86,0-1.51.79-2.76,2.47-3.83h24.75c7.31,0,7.49,10.52,16.48,35.58,2.55,7,3.7,12.39,3.7,15.51C929.53,283.27,927.68,285.24,923.89,285.24Zm41.93,1H942.74l-1-.27c-1.85-.71-2.82-1.87-2.82-3.57,0-.8,3.53-12.21,3.53-18.1,0-.26-.53-3.3-1.41-9.09-1.85.53-6.17,3.74-7.14,4.19-2.2-2.5-3.88-10-3.88-15.87,0-9.19,3.09-15.16,9-15.16h22.82l1,.27c2.55.89,3.87,2.32,3.87,4.28S962,243.42,962,243.69V271c0,.54,5.11,8.92,5.11,11.41A6.16,6.16,0,0,1,965.82,286.22Z"/><path class="cls-1" d="M1003.44,242.17c0,.09-3.43,9.72-3.43,10.16v14.45L997.1,269a4.12,4.12,0,0,0-1.67,3.12c0,1.87,3.34,7.67,3.34,10.34,0,2.94-2,4.46-6.25,4.46H974.9c-1.94,0-3.17-2.76-3.17-4.82,0-1.06,1.23-2.4,3.52-4.63,4.32-4.55,6.52-10,9.87-19.71l2.47-6.86c1-2.86,2.64-7.31,4.67-13.29,2.46-7,5.63-9.45,10.65-9.45.89,0,1.86,0,2.91.09A84.91,84.91,0,0,1,1003.44,242.17ZM1031.19,284l-23,1a6.78,6.78,0,0,1-1.94-4.37l.09-.27c3.08-5.44,4.67-9.09,4.67-11.14,0-.72-3-6.16-3-9.81v-6l7.13-21.22c2.56,1.7,4.85,4.82,6.87,9.28s3.09,10.79,7.84,22.82l7.23,10.88a6.93,6.93,0,0,1,.88,3C1038,281.67,1034.54,283.9,1031.19,284Z"/><path class="cls-1" d="M1068.9,241.37v37.09c0,1.87-3.43,7.4-5.55,7.4h-10.57c-6.17,0-9.16-1.52-9.16-4.55,0-2.14,4.58-10.7,4.58-11.05V242.62c0-2.32-5.11-10.53-5.11-11.77s1.85-3.75,5.55-3.75h15.68c7,0,10.49,1,10.49,3C1074.81,231.11,1068.9,239.32,1068.9,241.37Zm32.51,38.16c0,2.23-2,5.26-4.4,6.33h-17c-1.14-1.34-3-4.55-3-6.15,0-.45.53-1.25,1.58-2.32l2.3-2.23c3.17-3.39,3.26-3.39,4.49-9.09,1.23-4.37,2.55-6.07,7.22-6.07a15.09,15.09,0,0,1,6.61,1.43,11.9,11.9,0,0,1,2.2,6.06Z"/></g></g></svg>